<svg width="29" height="23" viewBox="0 0 29 23" fill="none" xmlns="http://www.w3.org/2000/svg">
<path d="M23.3076 12.4038V10.1538H28.7307V12.4038H23.3076ZM25.0211 22.4999L20.6827 19.2461L22.0499 17.4519L26.3884 20.7057L25.0211 22.4999ZM21.9922 5.04801L20.625 3.25382L24.9634 0L26.3307 1.79419L21.9922 5.04801ZM4.24037 20.9999V15.1441H2.71152C1.96345 15.1441 1.32451 14.8792 0.794705 14.3494C0.264902 13.8196 0 13.1807 0 12.4326V10.125C0 9.3769 0.264902 8.73796 0.794705 8.20816C1.32451 7.67836 1.96345 7.41346 2.71152 7.41346H8.50958L15.2307 3.40388V19.1537L8.50958 15.1441H6.49031V20.9999H4.24037ZM12.9807 15.1557V7.40186L9.13264 9.6634H2.71152C2.59612 9.6634 2.49035 9.71148 2.39419 9.80764C2.29803 9.9038 2.24995 10.0096 2.24995 10.125V12.4326C2.24995 12.548 2.29803 12.6538 2.39419 12.7499C2.49035 12.8461 2.59612 12.8942 2.71152 12.8942H9.13264L12.9807 15.1557ZM17.3076 15.9576V6.59997C17.8961 7.13266 18.3701 7.80381 18.7297 8.61342C19.0894 9.42303 19.2692 10.3115 19.2692 11.2788C19.2692 12.2461 19.0894 13.1346 18.7297 13.9442C18.3701 14.7538 17.8961 15.4249 17.3076 15.9576Z" fill="#C6C6C6"/>
</svg>
