<svg width="27" height="30" viewBox="0 0 27 30" fill="none" xmlns="http://www.w3.org/2000/svg">
<path d="M13.125 29.1346L0 21.8509V7.28364L13.125 0L26.2499 7.28364V21.8509L13.125 29.1346ZM8.84709 10.9038C9.39325 10.2846 10.0365 9.80288 10.7769 9.45865C11.5173 9.11442 12.3 8.9423 13.125 8.9423C13.95 8.9423 14.7327 9.11442 15.473 9.45865C16.2134 9.80288 16.8567 10.2846 17.4029 10.9038L22.7395 7.92978L13.125 2.58455L3.51049 7.92978L8.84709 10.9038ZM12 25.9269V20.0913C10.6788 19.799 9.59856 19.1394 8.75914 18.1125C7.91971 17.0855 7.5 15.9038 7.5 14.5673C7.5 14.2634 7.51971 13.9783 7.55914 13.712C7.59856 13.4456 7.66539 13.173 7.75962 12.8942L2.24995 9.80761V20.5211L12 25.9269ZM13.125 17.9423C14.0654 17.9423 14.863 17.6149 15.5178 16.9601C16.1726 16.3053 16.5 15.5077 16.5 14.5673C16.5 13.6269 16.1726 12.8293 15.5178 12.1745C14.863 11.5197 14.0654 11.1922 13.125 11.1922C12.1846 11.1922 11.387 11.5197 10.7322 12.1745C10.0774 12.8293 9.74994 13.6269 9.74994 14.5673C9.74994 15.5077 10.0774 16.3053 10.7322 16.9601C11.387 17.6149 12.1846 17.9423 13.125 17.9423ZM14.2499 25.9269L24 20.5211V9.80761L18.4903 12.8942C18.5846 13.173 18.6514 13.4456 18.6908 13.712C18.7302 13.9783 18.7499 14.2634 18.7499 14.5673C18.7499 15.9038 18.3302 17.0855 17.4908 18.1125C16.6514 19.1394 15.5711 19.799 14.2499 20.0913V25.9269Z" fill="#C6C6C6"/>
</svg>
